<svg width="24" height="24" viewBox="0 0 24 24" fill="none" xmlns="http://www.w3.org/2000/svg">
<path d="M11.6163 6.07902C11.4935 6.12662 11.3814 6.19798 11.2863 6.28902L6.2863 11.289C6.03264 11.5427 5.93358 11.9124 6.02642 12.2589C6.11927 12.6054 6.38992 12.8761 6.73642 12.9689C7.08293 13.0617 7.45264 12.9627 7.7063 12.709L10.9963 9.40902L10.9963 16.999C10.9963 17.5513 11.444 17.999 11.9963 17.999C12.5486 17.999 12.9963 17.5513 12.9963 16.999L12.9963 9.40902L16.2863 12.709C16.4741 12.8983 16.7297 13.0048 16.9963 13.0048C17.2629 13.0048 17.5185 12.8983 17.7063 12.709C17.8956 12.5213 18.0021 12.2657 18.0021 11.999C18.0021 11.7324 17.8956 11.4768 17.7063 11.289L12.7063 6.28902C12.6112 6.19798 12.4991 6.12662 12.3763 6.07902C12.1328 5.979 11.8598 5.979 11.6163 6.07902Z" fill="white"/>
</svg>
